# xmcd CD database file
#
# Track frame offsets:
#	150
#	18235
#	36690
#
# Disc length: 759 seconds
#
# Revision: 0
# Processed by: cddbd v1.5.1PL0 Copyright (c) Steve Scherf et al.
# Submitted via: CdAid (MTCDDB.DLL V2003.12.21)
#
DISCID=2002f503
DTITLE=Baby Bash - Suga Suga
DYEAR=2004
DGENRE=Hip-Hop
TTITLE0=Suga Suga
TTITLE1=Suga Suga (Remix)
TTITLE2=Sexy Eyes (Da Da Da Da)
EXTD=ID3G:   7 YEAR: 2004
EXTT0=
EXTT1=
EXTT2=
PLAYORDER=
